<?xml version="1.0" encoding="iso-8859-1"?>
<!-- Generator: Adobe Illustrator 18.0.0, SVG Export Plug-In . SVG Version: 6.00 Build 0)  -->
<!DOCTYPE svg PUBLIC "-//W3C//DTD SVG 1.1//EN" "http://www.w3.org/Graphics/SVG/1.1/DTD/svg11.dtd">
<svg version="1.1" id="Capa_1" xmlns="http://www.w3.org/2000/svg" xmlns:xlink="http://www.w3.org/1999/xlink" x="0px" y="0px"
	 viewBox="0 0 297 297" style="enable-background:new 0 0 297 297;" xml:space="preserve">
<g>
	<path d="M214.719,48.108c2.869,5.415,8.456,8.515,14.212,8.515c2.527,0,5.084-0.597,7.461-1.855l44.713-23.693
		c7.791-4.13,10.788-13.883,6.659-21.675l-0.469-0.884C284.425,3.1,278.836,0,273.079,0c-2.525,0-5.082,0.597-7.458,1.855
		L220.909,25.55c-7.792,4.129-10.789,13.882-6.66,21.673L214.719,48.108z"/>
	<path d="M34.881,142.839c0.126,0.238,0.266,0.48,0.415,0.723c8.263,14.949,23.898,24.213,41.039,24.213
		c7.591,0,15.168-1.89,21.914-5.464c32.884-17.427,68.338-72.669,75.302-83.882l33.145-17.563c-1.686-1.848-3.165-3.912-4.37-6.185
		l-0.472-0.891c-1.214-2.292-2.102-4.672-2.679-7.085l-33.137,17.56c-2.944-0.116-8.598-0.288-16.015-0.288
		c-30.308,0-71.508,2.688-95.673,15.494c-22.827,12.098-31.564,40.504-19.483,63.337C34.872,142.818,34.876,142.829,34.881,142.839z
		 M90.743,148.144c-4.506,2.388-9.354,3.599-14.408,3.599c-4.76,0-9.339-1.099-13.457-3.089c7.174-1.807,15.174-4.959,23.241-9.234
		c13.869-7.35,30.21-18.291,44.958-28.88C118.744,125.794,104.217,141.003,90.743,148.144z M78.612,125.254
		c-12.393,6.566-22.396,9.004-27.793,9.115c2.954-4.094,10.569-11.163,23.17-17.841c14.136-7.491,33.533-15.175,51.207-21.548
		C110.004,106.024,92.753,117.759,78.612,125.254z M61.858,93.639c13.491-7.149,34.284-10.628,53.783-12.268
		c-17.049,6.258-35.285,13.639-49.16,20.991c-7.316,3.877-14.72,8.717-20.672,13.979C47.217,106.99,52.879,98.396,61.858,93.639z"/>
	<path d="M280.769,177.758H16.231c-5.534,0-10.021,4.486-10.021,10.021c0,27.233,15.529,54.941,42.606,76.017
		C76.327,285.208,111.727,297,148.5,297c36.772,0,72.173-11.792,99.683-33.205c27.077-21.075,42.607-48.783,42.607-76.017
		C290.789,182.244,286.303,177.758,280.769,177.758z"/>
</g>
<g>
</g>
<g>
</g>
<g>
</g>
<g>
</g>
<g>
</g>
<g>
</g>
<g>
</g>
<g>
</g>
<g>
</g>
<g>
</g>
<g>
</g>
<g>
</g>
<g>
</g>
<g>
</g>
<g>
</g>
</svg>
